<svg id="ic_photo_camera_24px" xmlns="http://www.w3.org/2000/svg" width="38.039" height="34.235" viewBox="0 0 38.039 34.235">
  <ellipse id="Ellipse_16" data-name="Ellipse 16" cx="6.086" cy="6.086" rx="6.086" ry="6.086" transform="translate(12.933 12.933)" fill="#fff"/>
  <path id="Path_92" data-name="Path 92" d="M15.314,2,11.833,5.8H5.8A3.815,3.815,0,0,0,2,9.608V32.431a3.815,3.815,0,0,0,3.8,3.8H36.235a3.815,3.815,0,0,0,3.8-3.8V9.608a3.815,3.815,0,0,0-3.8-3.8H30.206L26.725,2Zm5.706,28.529a9.51,9.51,0,1,1,9.51-9.51A9.513,9.513,0,0,1,21.019,30.529Z" transform="translate(-2 -2)" fill="#fff"/>
</svg>
