<svg xmlns="http://www.w3.org/2000/svg" version="1.1" xmlns:xlink="http://www.w3.org/1999/xlink" xmlns:svgjs="http://svgjs.com/svgjs" width="512" height="512" x="0" y="0" viewBox="0 0 32 32" style="enable-background:new 0 0 512 512" xml:space="preserve"><g><link type="text/css" rel="stylesheet" id="dark-mode-custom-link"></link><link type="text/css" rel="stylesheet" id="dark-mode-general-link"></link><style lang="en" type="text/css" id="dark-mode-custom-style"></style><style lang="en" type="text/css" id="dark-mode-native-style"></style><path xmlns="http://www.w3.org/2000/svg" d="m16 1a14.978 14.978 0 0 0 -13.113 22.256l-1.849 6.47a1 1 0 0 0 .962 1.274 1.018 1.018 0 0 0 .274-.038l6.47-1.849a14.994 14.994 0 1 0 7.256-28.113zm0 6a1 1 0 1 1 -1 1 1 1 0 0 1 1-1zm3 18h-3a1 1 0 0 1 -1-1v-11h-2a1 1 0 0 1 0-2h3a1 1 0 0 1 1 1v11h2a1 1 0 0 1 0 2z" fill="#000000" data-original="#000000"></path></g></svg>