<svg xmlns="http://www.w3.org/2000/svg" xmlns:xlink="http://www.w3.org/1999/xlink" width="20" height="20" viewBox="0 0 20 20">
  <defs>
    <clipPath id="clip-path">
      <rect id="Rectangle_1143" data-name="Rectangle 1143" width="20" height="20" transform="translate(104 382)" fill="#ff575a" stroke="#707070" stroke-width="1"/>
    </clipPath>
  </defs>
  <g id="Mask_Group_160" data-name="Mask Group 160" transform="translate(-104 -382)" clip-path="url(#clip-path)">
    <g id="cancel" transform="translate(104 382)">
      <g id="Group_1223" data-name="Group 1223">
        <path id="Path_1436" data-name="Path 1436" d="M17.071,2.929A10,10,0,1,0,2.929,17.071,10,10,0,1,0,17.071,2.929Zm-.8,13.338A8.863,8.863,0,0,1,3.733,3.733,8.863,8.863,0,1,1,16.267,16.267Z" fill="#ff575a"/>
        <path id="Path_1437" data-name="Path 1437" d="M14.407,5.593a.566.566,0,0,0-.8,0L10,9.2l-3.6-3.6a.568.568,0,0,0-.8.8L9.2,10l-3.6,3.6a.57.57,0,0,0,.4.972.554.554,0,0,0,.4-.168L10,10.8l3.6,3.6a.572.572,0,0,0,.4.168.548.548,0,0,0,.4-.168.566.566,0,0,0,0-.8L10.8,10l3.6-3.6A.566.566,0,0,0,14.407,5.593Z" fill="#ff575a"/>
      </g>
    </g>
  </g>
</svg>
