<svg xmlns="http://www.w3.org/2000/svg" version="1.1" xmlns:xlink="http://www.w3.org/1999/xlink" xmlns:svgjs="http://svgjs.com/svgjs" width="512" height="512" x="0" y="0" viewBox="0 0 512 512" style="enable-background:new 0 0 512 512" xml:space="preserve"><g><link type="text/css" rel="stylesheet" id="dark-mode-custom-link"></link><link type="text/css" rel="stylesheet" id="dark-mode-general-link"></link><style lang="en" type="text/css" id="dark-mode-custom-style"></style><style lang="en" type="text/css" id="dark-mode-native-style"></style><path xmlns="http://www.w3.org/2000/svg" d="m127.994 87.582a13.468 13.468 0 0 0 13.47 13.469h141.481a13.474 13.474 0 1 0 0-26.947h-141.481a13.471 13.471 0 0 0 -13.47 13.478zm13.47 53.889a13.474 13.474 0 0 0 0 26.948h229.064a13.474 13.474 0 0 0 0-26.948zm242.536 80.845a13.471 13.471 0 0 0 -13.47-13.477h-229.066a13.474 13.474 0 0 0 0 26.947h229.064a13.463 13.463 0 0 0 13.472-13.47zm0 67.368a13.471 13.471 0 0 0 -13.47-13.478h-229.066a13.474 13.474 0 0 0 0 26.948h229.064a13.464 13.464 0 0 0 13.472-13.47zm0 67.367a13.47 13.47 0 0 0 -13.47-13.477h-229.066a13.474 13.474 0 0 0 0 26.947h229.064a13.464 13.464 0 0 0 13.472-13.47zm0 67.368a13.471 13.471 0 0 0 -13.47-13.478h-229.066a13.478 13.478 0 0 0 0 26.955h229.064a13.47 13.47 0 0 0 13.472-13.477zm41.773 87.581h-339.546v-512h238.367v80.835a20.368 20.368 0 0 0 20.344 20.345h80.835zm-74.232-492.44v54.672h55.971z" fill-rule="evenodd" fill="#000000" data-original="#000000"></path></g></svg>